<mxfile host="app.diagrams.net" modified="2022-06-16T01:07:35.130Z" agent="5.0 (Windows NT 10.0; Win64; x64) AppleWebKit/537.36 (KHTML, like Gecko) Chrome/102.0.0.0 Safari/537.36" etag="SaOtvMEcm2pIKzL8RVrS" version="20.0.1" type="github">
  <diagram id="BawupxP2Md3fQ7Jq_-S_" name="Page-1">
    <mxGraphModel dx="1791" dy="1878" grid="1" gridSize="10" guides="1" tooltips="1" connect="1" arrows="1" fold="1" page="1" pageScale="1" pageWidth="827" pageHeight="1169" math="0" shadow="0">
      <root>
        <mxCell id="0" />
        <mxCell id="1" parent="0" />
        <mxCell id="lVgsKW6Jp4lGQOpOUO88-2" style="edgeStyle=orthogonalEdgeStyle;rounded=0;orthogonalLoop=1;jettySize=auto;html=1;" edge="1" parent="1" source="lVgsKW6Jp4lGQOpOUO88-1" target="lVgsKW6Jp4lGQOpOUO88-3">
          <mxGeometry relative="1" as="geometry">
            <mxPoint x="410" y="140" as="targetPoint" />
          </mxGeometry>
        </mxCell>
        <mxCell id="lVgsKW6Jp4lGQOpOUO88-1" value="start" style="strokeWidth=2;html=1;shape=mxgraph.flowchart.terminator;whiteSpace=wrap;" vertex="1" parent="1">
          <mxGeometry x="360" y="60" width="100" height="60" as="geometry" />
        </mxCell>
        <mxCell id="lVgsKW6Jp4lGQOpOUO88-6" style="edgeStyle=orthogonalEdgeStyle;rounded=0;orthogonalLoop=1;jettySize=auto;html=1;entryX=0.5;entryY=0;entryDx=0;entryDy=0;entryPerimeter=0;" edge="1" parent="1" source="lVgsKW6Jp4lGQOpOUO88-3" target="lVgsKW6Jp4lGQOpOUO88-5">
          <mxGeometry relative="1" as="geometry" />
        </mxCell>
        <mxCell id="lVgsKW6Jp4lGQOpOUO88-3" value="vector&lt;int&gt; list = { 6,4,3,7,1,9,8 };&#xa;	sort(list);&#xa;	return 0;" style="rounded=1;whiteSpace=wrap;html=1;absoluteArcSize=1;arcSize=14;strokeWidth=2;" vertex="1" parent="1">
          <mxGeometry x="325" y="150" width="170" height="50" as="geometry" />
        </mxCell>
        <mxCell id="lVgsKW6Jp4lGQOpOUO88-7" style="edgeStyle=orthogonalEdgeStyle;rounded=0;orthogonalLoop=1;jettySize=auto;html=1;entryX=0.5;entryY=0;entryDx=0;entryDy=0;" edge="1" parent="1" source="lVgsKW6Jp4lGQOpOUO88-4" target="lVgsKW6Jp4lGQOpOUO88-8">
          <mxGeometry relative="1" as="geometry">
            <mxPoint x="165" y="100" as="targetPoint" />
          </mxGeometry>
        </mxCell>
        <mxCell id="lVgsKW6Jp4lGQOpOUO88-4" value="void sort(vector&lt;int&gt;&amp; v)" style="rounded=1;whiteSpace=wrap;html=1;absoluteArcSize=1;arcSize=14;strokeWidth=2;" vertex="1" parent="1">
          <mxGeometry x="82" y="20" width="166" height="40" as="geometry" />
        </mxCell>
        <mxCell id="lVgsKW6Jp4lGQOpOUO88-5" value="end" style="strokeWidth=2;html=1;shape=mxgraph.flowchart.terminator;whiteSpace=wrap;" vertex="1" parent="1">
          <mxGeometry x="360" y="240" width="100" height="60" as="geometry" />
        </mxCell>
        <mxCell id="lVgsKW6Jp4lGQOpOUO88-9" style="edgeStyle=orthogonalEdgeStyle;rounded=0;orthogonalLoop=1;jettySize=auto;html=1;entryX=0.5;entryY=0;entryDx=0;entryDy=0;entryPerimeter=0;" edge="1" parent="1" source="lVgsKW6Jp4lGQOpOUO88-8" target="lVgsKW6Jp4lGQOpOUO88-26">
          <mxGeometry relative="1" as="geometry">
            <mxPoint x="165" y="180" as="targetPoint" />
          </mxGeometry>
        </mxCell>
        <mxCell id="lVgsKW6Jp4lGQOpOUO88-8" value="int count=0,swap=0,check=-1;" style="rounded=1;whiteSpace=wrap;html=1;absoluteArcSize=1;arcSize=14;strokeWidth=2;" vertex="1" parent="1">
          <mxGeometry x="82" y="90" width="166" height="40" as="geometry" />
        </mxCell>
        <mxCell id="lVgsKW6Jp4lGQOpOUO88-11" style="edgeStyle=orthogonalEdgeStyle;rounded=0;orthogonalLoop=1;jettySize=auto;html=1;entryX=0.5;entryY=0;entryDx=0;entryDy=0;entryPerimeter=0;" edge="1" parent="1" source="lVgsKW6Jp4lGQOpOUO88-10" target="lVgsKW6Jp4lGQOpOUO88-12">
          <mxGeometry relative="1" as="geometry">
            <mxPoint x="165" y="420" as="targetPoint" />
          </mxGeometry>
        </mxCell>
        <mxCell id="lVgsKW6Jp4lGQOpOUO88-10" value="int j = v.size()-1; j &gt;i; j--" style="strokeWidth=2;html=1;shape=mxgraph.flowchart.loop_limit;whiteSpace=wrap;" vertex="1" parent="1">
          <mxGeometry x="77" y="320" width="176" height="40" as="geometry" />
        </mxCell>
        <mxCell id="lVgsKW6Jp4lGQOpOUO88-13" value="true" style="edgeStyle=orthogonalEdgeStyle;rounded=0;orthogonalLoop=1;jettySize=auto;html=1;" edge="1" parent="1" source="lVgsKW6Jp4lGQOpOUO88-12" target="lVgsKW6Jp4lGQOpOUO88-14">
          <mxGeometry relative="1" as="geometry">
            <mxPoint x="165" y="540" as="targetPoint" />
          </mxGeometry>
        </mxCell>
        <mxCell id="lVgsKW6Jp4lGQOpOUO88-34" value="false" style="edgeStyle=orthogonalEdgeStyle;rounded=0;orthogonalLoop=1;jettySize=auto;html=1;entryX=0.5;entryY=0;entryDx=0;entryDy=0;" edge="1" parent="1" source="lVgsKW6Jp4lGQOpOUO88-12" target="lVgsKW6Jp4lGQOpOUO88-35">
          <mxGeometry relative="1" as="geometry">
            <mxPoint x="421" y="450" as="targetPoint" />
          </mxGeometry>
        </mxCell>
        <mxCell id="lVgsKW6Jp4lGQOpOUO88-12" value="v[j - 1] &gt; v[j]" style="strokeWidth=2;html=1;shape=mxgraph.flowchart.decision;whiteSpace=wrap;" vertex="1" parent="1">
          <mxGeometry x="115" y="400" width="100" height="100" as="geometry" />
        </mxCell>
        <mxCell id="lVgsKW6Jp4lGQOpOUO88-16" style="edgeStyle=orthogonalEdgeStyle;rounded=0;orthogonalLoop=1;jettySize=auto;html=1;entryX=0.5;entryY=0;entryDx=0;entryDy=0;entryPerimeter=0;" edge="1" parent="1" source="lVgsKW6Jp4lGQOpOUO88-14" target="lVgsKW6Jp4lGQOpOUO88-15">
          <mxGeometry relative="1" as="geometry" />
        </mxCell>
        <mxCell id="lVgsKW6Jp4lGQOpOUO88-14" value="check = j;" style="rounded=1;whiteSpace=wrap;html=1;absoluteArcSize=1;arcSize=14;strokeWidth=2;" vertex="1" parent="1">
          <mxGeometry x="115" y="560" width="100" height="30" as="geometry" />
        </mxCell>
        <mxCell id="lVgsKW6Jp4lGQOpOUO88-17" style="edgeStyle=orthogonalEdgeStyle;rounded=0;orthogonalLoop=1;jettySize=auto;html=1;" edge="1" parent="1" source="lVgsKW6Jp4lGQOpOUO88-15" target="lVgsKW6Jp4lGQOpOUO88-18">
          <mxGeometry relative="1" as="geometry">
            <mxPoint x="165" y="690" as="targetPoint" />
          </mxGeometry>
        </mxCell>
        <mxCell id="lVgsKW6Jp4lGQOpOUO88-15" value="int k = 0; k &lt; v.size(); k++" style="strokeWidth=2;html=1;shape=mxgraph.flowchart.loop_limit;whiteSpace=wrap;" vertex="1" parent="1">
          <mxGeometry x="77" y="620" width="176" height="40" as="geometry" />
        </mxCell>
        <mxCell id="lVgsKW6Jp4lGQOpOUO88-19" value="true" style="edgeStyle=orthogonalEdgeStyle;rounded=0;orthogonalLoop=1;jettySize=auto;html=1;entryX=0.5;entryY=0;entryDx=0;entryDy=0;entryPerimeter=0;" edge="1" parent="1" source="lVgsKW6Jp4lGQOpOUO88-18" target="lVgsKW6Jp4lGQOpOUO88-24">
          <mxGeometry relative="1" as="geometry">
            <mxPoint x="165" y="840" as="targetPoint" />
          </mxGeometry>
        </mxCell>
        <mxCell id="lVgsKW6Jp4lGQOpOUO88-21" value="false" style="edgeStyle=orthogonalEdgeStyle;rounded=0;orthogonalLoop=1;jettySize=auto;html=1;entryX=0.5;entryY=0;entryDx=0;entryDy=0;entryPerimeter=0;" edge="1" parent="1" source="lVgsKW6Jp4lGQOpOUO88-18" target="lVgsKW6Jp4lGQOpOUO88-30">
          <mxGeometry relative="1" as="geometry">
            <mxPoint x="281" y="750" as="targetPoint" />
            <Array as="points">
              <mxPoint x="298" y="750" />
            </Array>
          </mxGeometry>
        </mxCell>
        <mxCell id="lVgsKW6Jp4lGQOpOUO88-18" value="check == k" style="strokeWidth=2;html=1;shape=mxgraph.flowchart.decision;whiteSpace=wrap;" vertex="1" parent="1">
          <mxGeometry x="115" y="700" width="100" height="100" as="geometry" />
        </mxCell>
        <mxCell id="lVgsKW6Jp4lGQOpOUO88-32" style="edgeStyle=orthogonalEdgeStyle;rounded=0;orthogonalLoop=1;jettySize=auto;html=1;entryX=0.5;entryY=0;entryDx=0;entryDy=0;" edge="1" parent="1" source="lVgsKW6Jp4lGQOpOUO88-24" target="lVgsKW6Jp4lGQOpOUO88-31">
          <mxGeometry relative="1" as="geometry" />
        </mxCell>
        <mxCell id="lVgsKW6Jp4lGQOpOUO88-24" value="cout &lt;&lt; &quot;+&quot;;" style="strokeWidth=2;html=1;shape=mxgraph.flowchart.document2;whiteSpace=wrap;size=0.25;" vertex="1" parent="1">
          <mxGeometry x="115" y="840" width="100" height="60" as="geometry" />
        </mxCell>
        <mxCell id="lVgsKW6Jp4lGQOpOUO88-29" style="edgeStyle=orthogonalEdgeStyle;rounded=0;orthogonalLoop=1;jettySize=auto;html=1;entryX=0.5;entryY=0;entryDx=0;entryDy=0;entryPerimeter=0;" edge="1" parent="1" source="lVgsKW6Jp4lGQOpOUO88-25" target="lVgsKW6Jp4lGQOpOUO88-10">
          <mxGeometry relative="1" as="geometry" />
        </mxCell>
        <mxCell id="lVgsKW6Jp4lGQOpOUO88-25" value="cout &lt;&lt; &quot;패스&quot; &lt;&lt; i+1 &lt;&lt; endl;" style="strokeWidth=2;html=1;shape=mxgraph.flowchart.document2;whiteSpace=wrap;size=0.25;" vertex="1" parent="1">
          <mxGeometry x="70" y="230" width="190" height="60" as="geometry" />
        </mxCell>
        <mxCell id="lVgsKW6Jp4lGQOpOUO88-27" style="edgeStyle=orthogonalEdgeStyle;rounded=0;orthogonalLoop=1;jettySize=auto;html=1;entryX=0.5;entryY=0;entryDx=0;entryDy=0;entryPerimeter=0;" edge="1" parent="1" source="lVgsKW6Jp4lGQOpOUO88-26" target="lVgsKW6Jp4lGQOpOUO88-25">
          <mxGeometry relative="1" as="geometry" />
        </mxCell>
        <mxCell id="lVgsKW6Jp4lGQOpOUO88-26" value="int j = v.size()-1; j &gt;i; j--" style="strokeWidth=2;html=1;shape=mxgraph.flowchart.loop_limit;whiteSpace=wrap;" vertex="1" parent="1">
          <mxGeometry x="77" y="160" width="176" height="40" as="geometry" />
        </mxCell>
        <mxCell id="lVgsKW6Jp4lGQOpOUO88-33" style="edgeStyle=orthogonalEdgeStyle;rounded=0;orthogonalLoop=1;jettySize=auto;html=1;entryX=0.5;entryY=0;entryDx=0;entryDy=0;" edge="1" parent="1" source="lVgsKW6Jp4lGQOpOUO88-30" target="lVgsKW6Jp4lGQOpOUO88-31">
          <mxGeometry relative="1" as="geometry" />
        </mxCell>
        <mxCell id="lVgsKW6Jp4lGQOpOUO88-30" value="cout &lt;&lt; &quot; &quot;;" style="strokeWidth=2;html=1;shape=mxgraph.flowchart.document2;whiteSpace=wrap;size=0.25;" vertex="1" parent="1">
          <mxGeometry x="248" y="840" width="100" height="60" as="geometry" />
        </mxCell>
        <mxCell id="lVgsKW6Jp4lGQOpOUO88-47" style="edgeStyle=orthogonalEdgeStyle;rounded=0;orthogonalLoop=1;jettySize=auto;html=1;" edge="1" parent="1" source="lVgsKW6Jp4lGQOpOUO88-31" target="lVgsKW6Jp4lGQOpOUO88-48">
          <mxGeometry relative="1" as="geometry">
            <mxPoint x="391" y="1040" as="targetPoint" />
          </mxGeometry>
        </mxCell>
        <mxCell id="lVgsKW6Jp4lGQOpOUO88-31" value="cout &lt;&lt; v[k];" style="rounded=1;whiteSpace=wrap;html=1;absoluteArcSize=1;arcSize=14;strokeWidth=2;" vertex="1" parent="1">
          <mxGeometry x="181" y="940" width="100" height="40" as="geometry" />
        </mxCell>
        <mxCell id="lVgsKW6Jp4lGQOpOUO88-46" style="edgeStyle=orthogonalEdgeStyle;rounded=0;orthogonalLoop=1;jettySize=auto;html=1;entryX=0.5;entryY=0;entryDx=0;entryDy=0;entryPerimeter=0;" edge="1" parent="1" source="lVgsKW6Jp4lGQOpOUO88-35" target="lVgsKW6Jp4lGQOpOUO88-37">
          <mxGeometry relative="1" as="geometry" />
        </mxCell>
        <mxCell id="lVgsKW6Jp4lGQOpOUO88-35" value="check = j;" style="rounded=1;whiteSpace=wrap;html=1;absoluteArcSize=1;arcSize=14;strokeWidth=2;" vertex="1" parent="1">
          <mxGeometry x="431" y="560" width="100" height="30" as="geometry" />
        </mxCell>
        <mxCell id="lVgsKW6Jp4lGQOpOUO88-36" style="edgeStyle=orthogonalEdgeStyle;rounded=0;orthogonalLoop=1;jettySize=auto;html=1;" edge="1" parent="1" source="lVgsKW6Jp4lGQOpOUO88-37" target="lVgsKW6Jp4lGQOpOUO88-40">
          <mxGeometry relative="1" as="geometry">
            <mxPoint x="479" y="690" as="targetPoint" />
          </mxGeometry>
        </mxCell>
        <mxCell id="lVgsKW6Jp4lGQOpOUO88-37" value="int k = 0; k &lt; v.size(); k++" style="strokeWidth=2;html=1;shape=mxgraph.flowchart.loop_limit;whiteSpace=wrap;" vertex="1" parent="1">
          <mxGeometry x="391" y="620" width="176" height="40" as="geometry" />
        </mxCell>
        <mxCell id="lVgsKW6Jp4lGQOpOUO88-38" value="true" style="edgeStyle=orthogonalEdgeStyle;rounded=0;orthogonalLoop=1;jettySize=auto;html=1;entryX=0.5;entryY=0;entryDx=0;entryDy=0;entryPerimeter=0;" edge="1" parent="1" source="lVgsKW6Jp4lGQOpOUO88-40" target="lVgsKW6Jp4lGQOpOUO88-42">
          <mxGeometry relative="1" as="geometry">
            <mxPoint x="479" y="840" as="targetPoint" />
          </mxGeometry>
        </mxCell>
        <mxCell id="lVgsKW6Jp4lGQOpOUO88-39" value="false" style="edgeStyle=orthogonalEdgeStyle;rounded=0;orthogonalLoop=1;jettySize=auto;html=1;entryX=0.5;entryY=0;entryDx=0;entryDy=0;entryPerimeter=0;" edge="1" parent="1" source="lVgsKW6Jp4lGQOpOUO88-40" target="lVgsKW6Jp4lGQOpOUO88-44">
          <mxGeometry relative="1" as="geometry">
            <mxPoint x="595" y="750" as="targetPoint" />
            <Array as="points">
              <mxPoint x="612" y="750" />
            </Array>
          </mxGeometry>
        </mxCell>
        <mxCell id="lVgsKW6Jp4lGQOpOUO88-40" value="check == k" style="strokeWidth=2;html=1;shape=mxgraph.flowchart.decision;whiteSpace=wrap;" vertex="1" parent="1">
          <mxGeometry x="429" y="700" width="100" height="100" as="geometry" />
        </mxCell>
        <mxCell id="lVgsKW6Jp4lGQOpOUO88-41" style="edgeStyle=orthogonalEdgeStyle;rounded=0;orthogonalLoop=1;jettySize=auto;html=1;entryX=0.5;entryY=0;entryDx=0;entryDy=0;" edge="1" parent="1" source="lVgsKW6Jp4lGQOpOUO88-42" target="lVgsKW6Jp4lGQOpOUO88-45">
          <mxGeometry relative="1" as="geometry" />
        </mxCell>
        <mxCell id="lVgsKW6Jp4lGQOpOUO88-42" value="cout &amp;lt;&amp;lt; &quot;-&quot;;" style="strokeWidth=2;html=1;shape=mxgraph.flowchart.document2;whiteSpace=wrap;size=0.25;" vertex="1" parent="1">
          <mxGeometry x="429" y="840" width="100" height="60" as="geometry" />
        </mxCell>
        <mxCell id="lVgsKW6Jp4lGQOpOUO88-43" style="edgeStyle=orthogonalEdgeStyle;rounded=0;orthogonalLoop=1;jettySize=auto;html=1;entryX=0.5;entryY=0;entryDx=0;entryDy=0;" edge="1" parent="1" source="lVgsKW6Jp4lGQOpOUO88-44" target="lVgsKW6Jp4lGQOpOUO88-45">
          <mxGeometry relative="1" as="geometry" />
        </mxCell>
        <mxCell id="lVgsKW6Jp4lGQOpOUO88-44" value="cout &lt;&lt; &quot; &quot;;" style="strokeWidth=2;html=1;shape=mxgraph.flowchart.document2;whiteSpace=wrap;size=0.25;" vertex="1" parent="1">
          <mxGeometry x="562" y="840" width="100" height="60" as="geometry" />
        </mxCell>
        <mxCell id="lVgsKW6Jp4lGQOpOUO88-49" style="edgeStyle=orthogonalEdgeStyle;rounded=0;orthogonalLoop=1;jettySize=auto;html=1;" edge="1" parent="1" source="lVgsKW6Jp4lGQOpOUO88-45" target="lVgsKW6Jp4lGQOpOUO88-48">
          <mxGeometry relative="1" as="geometry" />
        </mxCell>
        <mxCell id="lVgsKW6Jp4lGQOpOUO88-45" value="cout &lt;&lt; v[k];" style="rounded=1;whiteSpace=wrap;html=1;absoluteArcSize=1;arcSize=14;strokeWidth=2;" vertex="1" parent="1">
          <mxGeometry x="495" y="940" width="100" height="40" as="geometry" />
        </mxCell>
        <mxCell id="lVgsKW6Jp4lGQOpOUO88-50" style="edgeStyle=orthogonalEdgeStyle;rounded=0;orthogonalLoop=1;jettySize=auto;html=1;" edge="1" parent="1" source="lVgsKW6Jp4lGQOpOUO88-48" target="lVgsKW6Jp4lGQOpOUO88-51">
          <mxGeometry relative="1" as="geometry">
            <mxPoint x="391" y="1120" as="targetPoint" />
          </mxGeometry>
        </mxCell>
        <mxCell id="lVgsKW6Jp4lGQOpOUO88-48" value="cout &lt;&lt; endl;" style="rounded=1;whiteSpace=wrap;html=1;absoluteArcSize=1;arcSize=14;strokeWidth=2;" vertex="1" parent="1">
          <mxGeometry x="341" y="1020" width="100" height="40" as="geometry" />
        </mxCell>
        <mxCell id="lVgsKW6Jp4lGQOpOUO88-52" value="true" style="edgeStyle=orthogonalEdgeStyle;rounded=0;orthogonalLoop=1;jettySize=auto;html=1;entryX=0.5;entryY=0;entryDx=0;entryDy=0;" edge="1" parent="1" source="lVgsKW6Jp4lGQOpOUO88-51" target="lVgsKW6Jp4lGQOpOUO88-53">
          <mxGeometry relative="1" as="geometry">
            <mxPoint x="391" y="1210" as="targetPoint" />
          </mxGeometry>
        </mxCell>
        <mxCell id="lVgsKW6Jp4lGQOpOUO88-54" value="false" style="edgeStyle=orthogonalEdgeStyle;rounded=0;orthogonalLoop=1;jettySize=auto;html=1;exitX=1;exitY=0.5;exitDx=0;exitDy=0;exitPerimeter=0;" edge="1" parent="1" source="lVgsKW6Jp4lGQOpOUO88-51" target="lVgsKW6Jp4lGQOpOUO88-55">
          <mxGeometry relative="1" as="geometry">
            <mxPoint x="501" y="1290" as="targetPoint" />
            <mxPoint x="461" y="1170" as="sourcePoint" />
            <Array as="points">
              <mxPoint x="461" y="1125" />
              <mxPoint x="461" y="1300" />
              <mxPoint x="391" y="1300" />
            </Array>
          </mxGeometry>
        </mxCell>
        <mxCell id="lVgsKW6Jp4lGQOpOUO88-51" value="v[j - 1] &gt; v[j]" style="strokeWidth=2;html=1;shape=mxgraph.flowchart.decision;whiteSpace=wrap;" vertex="1" parent="1">
          <mxGeometry x="341" y="1090" width="100" height="70" as="geometry" />
        </mxCell>
        <mxCell id="lVgsKW6Jp4lGQOpOUO88-56" style="edgeStyle=orthogonalEdgeStyle;rounded=0;orthogonalLoop=1;jettySize=auto;html=1;entryX=0.5;entryY=0;entryDx=0;entryDy=0;" edge="1" parent="1" source="lVgsKW6Jp4lGQOpOUO88-53" target="lVgsKW6Jp4lGQOpOUO88-55">
          <mxGeometry relative="1" as="geometry" />
        </mxCell>
        <mxCell id="lVgsKW6Jp4lGQOpOUO88-53" value="swap++;&#xa;				int temp = v[j - 1];&#xa;				v[j - 1] = v[j];&#xa;				v[j] = temp;" style="rounded=1;whiteSpace=wrap;html=1;absoluteArcSize=1;arcSize=14;strokeWidth=2;" vertex="1" parent="1">
          <mxGeometry x="341" y="1210" width="100" height="70" as="geometry" />
        </mxCell>
        <mxCell id="lVgsKW6Jp4lGQOpOUO88-58" style="edgeStyle=orthogonalEdgeStyle;rounded=0;orthogonalLoop=1;jettySize=auto;html=1;entryX=0.5;entryY=0;entryDx=0;entryDy=0;entryPerimeter=0;" edge="1" parent="1" source="lVgsKW6Jp4lGQOpOUO88-55" target="lVgsKW6Jp4lGQOpOUO88-57">
          <mxGeometry relative="1" as="geometry" />
        </mxCell>
        <mxCell id="lVgsKW6Jp4lGQOpOUO88-55" value="count++;" style="rounded=1;whiteSpace=wrap;html=1;absoluteArcSize=1;arcSize=14;strokeWidth=2;" vertex="1" parent="1">
          <mxGeometry x="341" y="1340" width="100" height="40" as="geometry" />
        </mxCell>
        <mxCell id="lVgsKW6Jp4lGQOpOUO88-57" value="cout &lt;&lt; endl;&#xa;	cout &lt;&lt; count&lt;&lt;&quot; &quot; &lt;&lt; swap;" style="strokeWidth=2;html=1;shape=mxgraph.flowchart.document2;whiteSpace=wrap;size=0.25;" vertex="1" parent="1">
          <mxGeometry x="306" y="1410" width="170" height="60" as="geometry" />
        </mxCell>
      </root>
    </mxGraphModel>
  </diagram>
</mxfile>
